REM DIRINDEX 1\5,1\2\6,1\2\7,1\3\8,1\3\9,1\4\10,1\4\11,1\4\12
REM DIRNAME cjc026,folder01,folder02,folder03,folder04,folder05,folder06,folder07,folder08,folder09,folder10,folder11
TITLE ""
FILE "EJE_DB3000_5th_6C_33.mp3" MP3
  TRACK 01 AUDIO
    TITLE "0:"
    INDEX 01 00:00:00
  TRACK 02 AUDIO
    TITLE "10:cjc026_11424"
    INDEX 01 00:00:08
  TRACK 03 AUDIO
    TITLE "0:"
    INDEX 01 00:01:24
  TRACK 04 AUDIO
    TITLE "11:cjc026_11425"
    INDEX 01 00:01:60
  TRACK 05 AUDIO
    TITLE "0:"
    INDEX 01 00:03:23
  TRACK 06 AUDIO
    TITLE "12:cjc026_11426"
    INDEX 01 00:03:58
  TRACK 07 AUDIO
    TITLE "0:"
    INDEX 01 00:05:03
  TRACK 08 AUDIO
    TITLE "10:cjc026_11427"
    INDEX 01 00:05:38
  TRACK 09 AUDIO
    TITLE "0:"
    INDEX 01 00:06:63
  TRACK 10 AUDIO
    TITLE "11:cjc026_11428"
    INDEX 01 00:07:20
  TRACK 11 AUDIO
    TITLE "0:"
    INDEX 01 00:08:66
  TRACK 12 AUDIO
    TITLE "12:cjc026_11429"
    INDEX 01 00:09:29
  TRACK 13 AUDIO
    TITLE "0:"
    INDEX 01 00:10:54
  TRACK 14 AUDIO
    TITLE "10:cjc026_11430"
    INDEX 01 00:11:12
  TRACK 15 AUDIO
    TITLE "0:"
    INDEX 01 00:12:26
  TRACK 16 AUDIO
    TITLE "11:cjc026_11431"
    INDEX 01 00:12:63
  TRACK 17 AUDIO
    TITLE "0:"
    INDEX 01 00:14:24
  TRACK 18 AUDIO
    TITLE "12:cjc026_11432"
    INDEX 01 00:14:59
  TRACK 19 AUDIO
    TITLE "0:"
    INDEX 01 00:15:71
  TRACK 20 AUDIO
    TITLE "10:cjc026_11433"
    INDEX 01 00:16:31
  TRACK 21 AUDIO
    TITLE "0:"
    INDEX 01 00:17:53
  TRACK 22 AUDIO
    TITLE "11:cjc026_11434"
    INDEX 01 00:18:13
  TRACK 23 AUDIO
    TITLE "0:"
    INDEX 01 00:19:70
  TRACK 24 AUDIO
    TITLE "12:cjc026_11435"
    INDEX 01 00:20:30
  TRACK 25 AUDIO
    TITLE "0:"
    INDEX 01 00:21:50
  TRACK 26 AUDIO
    TITLE "10:cjc026_11436"
    INDEX 01 00:22:10
  TRACK 27 AUDIO
    TITLE "0:"
    INDEX 01 00:23:27
  TRACK 28 AUDIO
    TITLE "11:cjc026_11437"
    INDEX 01 00:23:65
  TRACK 29 AUDIO
    TITLE "0:"
    INDEX 01 00:25:23
  TRACK 30 AUDIO
    TITLE "12:cjc026_11438"
    INDEX 01 00:25:63
  TRACK 31 AUDIO
    TITLE "0:"
    INDEX 01 00:27:05
  TRACK 32 AUDIO
    TITLE "10:cjc026_11439"
    INDEX 01 00:27:40
  TRACK 33 AUDIO
    TITLE "0:"
    INDEX 01 00:28:57
  TRACK 34 AUDIO
    TITLE "11:cjc026_11440"
    INDEX 01 00:29:17
  TRACK 35 AUDIO
    TITLE "0:"
    INDEX 01 00:30:58
  TRACK 36 AUDIO
    TITLE "12:cjc026_11441"
    INDEX 01 00:31:18
  TRACK 37 AUDIO
    TITLE "0:"
    INDEX 01 00:32:35
  TRACK 38 AUDIO
    TITLE "10:cjc026_11442"
    INDEX 01 00:32:70
  TRACK 39 AUDIO
    TITLE "0:"
    INDEX 01 00:34:09
  TRACK 40 AUDIO
    TITLE "11:cjc026_11443"
    INDEX 01 00:34:44
  TRACK 41 AUDIO
    TITLE "0:"
    INDEX 01 00:36:00
  TRACK 42 AUDIO
    TITLE "12:cjc026_11444"
    INDEX 01 00:36:32
  TRACK 43 AUDIO
    TITLE "0:"
    INDEX 01 00:37:49
  TRACK 44 AUDIO
    TITLE "10:cjc026_11445"
    INDEX 01 00:38:09
  TRACK 45 AUDIO
    TITLE "0:"
    INDEX 01 00:39:42
  TRACK 46 AUDIO
    TITLE "11:cjc026_11446"
    INDEX 01 00:39:72
  TRACK 47 AUDIO
    TITLE "0:"
    INDEX 01 00:41:38
  TRACK 48 AUDIO
    TITLE "12:cjc026_11447"
    INDEX 01 00:41:70
  TRACK 49 AUDIO
    TITLE "0:"
    INDEX 01 00:43:28
  TRACK 50 AUDIO
    TITLE "10:cjc026_11448"
    INDEX 01 00:43:63
  TRACK 51 AUDIO
    TITLE "0:"
    INDEX 01 00:45:02
  TRACK 52 AUDIO
    TITLE "11:cjc026_11449"
    INDEX 01 00:45:37
  TRACK 53 AUDIO
    TITLE "0:"
    INDEX 01 00:46:33
  TRACK 54 AUDIO
    TITLE "12:cjc026_11450"
    INDEX 01 00:46:68
  TRACK 55 AUDIO
    TITLE "0:"
    INDEX 01 00:48:09
  TRACK 56 AUDIO
    TITLE "10:cjc026_11451"
    INDEX 01 00:48:45
  TRACK 57 AUDIO
    TITLE "0:"
    INDEX 01 00:49:67
  TRACK 58 AUDIO
    TITLE "11:cjc026_11452"
    INDEX 01 00:50:27
  TRACK 59 AUDIO
    TITLE "0:"
    INDEX 01 00:51:52
  TRACK 60 AUDIO
    TITLE "12:cjc026_11453"
    INDEX 01 00:52:12
  TRACK 61 AUDIO
    TITLE "0:"
    INDEX 01 00:53:34
  TRACK 62 AUDIO
    TITLE "10:cjc026_11454"
    INDEX 01 00:53:69
  TRACK 63 AUDIO
    TITLE "0:"
    INDEX 01 00:55:08
  TRACK 64 AUDIO
    TITLE "11:cjc026_11455"
    INDEX 01 00:55:46
  TRACK 65 AUDIO
    TITLE "0:"
    INDEX 01 00:56:66
  TRACK 66 AUDIO
    TITLE "12:cjc026_11456"
    INDEX 01 00:57:26
  TRACK 67 AUDIO
    TITLE "0:"
    INDEX 01 00:58:40
  TRACK 68 AUDIO
    TITLE "10:cjc026_11457"
    INDEX 01 00:59:00
  TRACK 69 AUDIO
    TITLE "0:"
    INDEX 01 01:00:09
  TRACK 70 AUDIO
    TITLE "11:cjc026_11458"
    INDEX 01 01:00:44
  TRACK 71 AUDIO
    TITLE "0:"
    INDEX 01 01:01:55
  TRACK 72 AUDIO
    TITLE "12:cjc026_11459"
    INDEX 01 01:02:18
  TRACK 73 AUDIO
    TITLE "0:"
    INDEX 01 01:03:27
  TRACK 74 AUDIO
    TITLE "10:cjc026_11460"
    INDEX 01 01:03:62
  TRACK 75 AUDIO
    TITLE "0:"
    INDEX 01 01:04:68
  TRACK 76 AUDIO
    TITLE "11:cjc026_11461"
    INDEX 01 01:05:30
  TRACK 77 AUDIO
    TITLE "0:"
    INDEX 01 01:06:44
  TRACK 78 AUDIO
    TITLE "12:cjc026_11462"
    INDEX 01 01:07:05
  TRACK 79 AUDIO
    TITLE "0:"
    INDEX 01 01:08:11
